<svg xmlns="http://www.w3.org/2000/svg" width="1400" height="944" viewBox="0 0 1400 944">
<style>
text{font-family:"Microsoft YaHei","Noto Sans CJK SC",sans-serif;fill:#202124}.title{font-size:29px;font-weight:500}.subtitle{font-size:18px}.panel-label{font-size:18px;font-weight:500}.tick{font-size:14px;fill:#5f6368}.axis-label{font-size:18px;fill:#4b4f52}.grid{stroke:#dfe3e8;stroke-width:1}.border{fill:none;stroke:#9aa0a6;stroke-width:1.3}.beat{stroke:#f28c45;stroke-width:1.25;opacity:.55}.wave{fill:none;stroke:#298fff;stroke-width:2.7;stroke-linejoin:round;stroke-linecap:round}.note{font-size:16px;fill:#5f6368}
</style>
<rect width="100%" height="100%" fill="#ffffff"/>
<text x="120" y="48" class="title">胸口、腹部、椅背各自最优10秒：真实连续窄带心搏候选</text>
<text x="120" y="84" class="panel-label">胸口 · 原记录92.42–102.42s · 中心1.39Hz · 一致性0.98 · 自然变异度0.24</text>
<line x1="120.00" y1="100" x2="120.00" y2="290" class="grid"/>
<line x1="241.00" y1="100" x2="241.00" y2="290" class="grid"/>
<line x1="362.00" y1="100" x2="362.00" y2="290" class="grid"/>
<line x1="483.00" y1="100" x2="483.00" y2="290" class="grid"/>
<line x1="604.00" y1="100" x2="604.00" y2="290" class="grid"/>
<line x1="725.00" y1="100" x2="725.00" y2="290" class="grid"/>
<line x1="846.00" y1="100" x2="846.00" y2="290" class="grid"/>
<line x1="967.00" y1="100" x2="967.00" y2="290" class="grid"/>
<line x1="1088.00" y1="100" x2="1088.00" y2="290" class="grid"/>
<line x1="1209.00" y1="100" x2="1209.00" y2="290" class="grid"/>
<line x1="1330.00" y1="100" x2="1330.00" y2="290" class="grid"/>
<line x1="120" y1="274.17" x2="1330" y2="274.17" class="grid"/>
<text x="108" y="279.17" class="tick" text-anchor="end">-1</text>
<line x1="120" y1="195.00" x2="1330" y2="195.00" class="grid"/>
<text x="108" y="200.00" class="tick" text-anchor="end">+0</text>
<line x1="120" y1="115.83" x2="1330" y2="115.83" class="grid"/>
<text x="108" y="120.83" class="tick" text-anchor="end">+1</text>
<rect x="120" y="100" width="1210" height="190" class="border"/>
<polyline points="120.00,146.40 122.42,153.69 124.84,162.60 127.26,172.83 129.68,184.05 132.10,195.88 134.52,207.91 136.94,219.75 139.36,230.99 141.78,241.22 144.20,250.09 146.62,257.28 149.04,262.53 151.46,265.62 153.88,266.44 156.30,264.93 158.72,261.12 161.14,255.10 163.56,247.06 165.98,237.22 168.40,225.90 170.82,213.45 173.24,200.25 175.66,186.72 178.08,173.31 180.50,160.42 182.92,148.50 185.34,137.92 187.76,129.04 190.18,122.15 192.60,117.51 195.02,115.26 197.44,115.52 199.86,118.30 202.28,123.52 204.70,131.05 207.12,140.66 209.54,152.05 211.96,164.88 214.38,178.73 216.80,193.17 219.22,207.73 221.64,221.94 224.06,235.33 226.48,247.44 228.90,257.87 231.32,266.26 233.74,272.33 236.16,275.85 238.58,276.70 241.00,274.84 243.42,270.32 245.84,263.28 248.26,253.95 250.68,242.65 253.10,229.76 255.52,215.72 257.94,201.01 260.36,186.14 262.78,171.62 265.20,157.94 267.62,145.59 270.04,134.97 272.46,126.44 274.88,120.30 277.30,116.73 279.72,115.83 282.14,117.62 284.56,122.00 286.98,128.78 289.40,137.69 291.82,148.39 294.24,160.48 296.66,173.49 299.08,186.96 301.50,200.41 303.92,213.38 306.34,225.42 308.76,236.12 311.18,245.16 313.60,252.25 316.02,257.22 318.44,259.96 320.86,260.45 323.28,258.75 325.70,255.02 328.12,249.47 330.54,242.36 332.96,234.00 335.38,224.74 337.80,214.94 340.22,204.96 342.64,195.15 345.06,185.83 347.48,177.28 349.90,169.74 352.32,163.38 354.74,158.32 357.16,154.65 359.58,152.37 362.00,151.44 364.42,151.78 366.84,153.27 369.26,155.75 371.68,159.07 374.10,163.03 376.52,167.46 378.94,172.19 381.36,177.05 383.78,181.91 386.20,186.64 388.62,191.15 391.04,195.37 393.46,199.26 395.88,202.79 398.30,205.97 400.72,208.81 403.14,211.31 405.56,213.50 407.98,215.39 410.40,217.00 412.82,218.33 415.24,219.38 417.66,220.13 420.08,220.57 422.50,220.65 424.92,220.35 427.34,219.62 429.76,218.44 432.18,216.76 434.60,214.57 437.02,211.88 439.44,208.68 441.86,205.02 444.28,200.94 446.70,196.52 449.12,191.85 451.54,187.03 453.96,182.18 456.38,177.44 458.80,172.94 461.22,168.83 463.64,165.24 466.06,162.30 468.48,160.12 470.90,158.78 473.32,158.35 475.74,158.88 478.16,160.37 480.58,162.82 483.00,166.17 485.42,170.34 487.84,175.24 490.26,180.75 492.68,186.72 495.10,193.00 497.52,199.43 499.94,205.83 502.36,212.04 504.78,217.88 507.20,223.18 509.62,227.81 512.04,231.63 514.46,234.53 516.88,236.41 519.30,237.20 521.72,236.88 524.14,235.42 526.56,232.86 528.98,229.22 531.40,224.58 533.82,219.05 536.24,212.76 538.66,205.84 541.08,198.48 543.50,190.88 545.92,183.22 548.34,175.72 550.76,168.60 553.18,162.07 555.60,156.32 558.02,151.54 560.44,147.90 562.86,145.53 565.28,144.54 567.70,144.99 570.12,146.90 572.54,150.26 574.96,155.00 577.38,161.02 579.80,168.15 582.22,176.21 584.64,184.96 587.06,194.16 589.48,203.51 591.90,212.74 594.32,221.55 596.74,229.65 599.16,236.77 601.58,242.67 604.00,247.14 606.42,250.01 608.84,251.18 611.26,250.60 613.68,248.25 616.10,244.20 618.52,238.57 620.94,231.53 623.36,223.31 625.78,214.17 628.20,204.40 630.62,194.34 633.04,184.31 635.46,174.64 637.88,165.64 640.30,157.60 642.72,150.78 645.14,145.40 647.56,141.61 649.98,139.54 652.40,139.23 654.82,140.66 657.24,143.78 659.66,148.45 662.08,154.51 664.50,161.74 666.92,169.88 669.34,178.65 671.76,187.74 674.18,196.86 676.60,205.71 679.02,214.00 681.44,221.47 683.86,227.90 686.28,233.09 688.70,236.92 691.12,239.26 693.54,240.09 695.96,239.41 698.38,237.27 700.80,233.78 703.22,229.08 705.64,223.37 708.06,216.85 710.48,209.75 712.90,202.32 715.32,194.82 717.74,187.50 720.16,180.61 722.58,174.39 725.00,169.03 727.42,164.70 729.84,161.55 732.26,159.66 734.68,159.09 737.10,159.84 739.52,161.89 741.94,165.16 744.36,169.51 746.78,174.78 749.20,180.79 751.62,187.33 754.04,194.15 756.46,201.00 758.88,207.65 761.30,213.84 763.72,219.35 766.14,223.96 768.56,227.49 770.98,229.81 773.40,230.81 775.82,230.44 778.24,228.70 780.66,225.61 783.08,221.28 785.50,215.83 787.92,209.44 790.34,202.33 792.76,194.74 795.18,186.94 797.60,179.21 800.02,171.82 802.44,165.04 804.86,159.14 807.28,154.33 809.70,150.81 812.12,148.71 814.54,148.13 816.96,149.12 819.38,151.66 821.80,155.69 824.22,161.10 826.64,167.70 829.06,175.30 831.48,183.65 833.90,192.47 836.32,201.48 838.74,210.38 841.16,218.87 843.58,226.68 846.00,233.54 848.42,239.24 850.84,243.58 853.26,246.43 855.68,247.69 858.10,247.34 860.52,245.38 862.94,241.88 865.36,236.96 867.78,230.76 870.20,223.50 872.62,215.40 875.04,206.72 877.46,197.73 879.88,188.70 882.30,179.92 884.72,171.64 887.14,164.10 889.56,157.53 891.98,152.09 894.40,147.95 896.82,145.20 899.24,143.92 901.66,144.12 904.08,145.78 906.50,148.83 908.92,153.15 911.34,158.62 913.76,165.04 916.18,172.23 918.60,179.95 921.02,187.98 923.44,196.08 925.86,204.01 928.28,211.55 930.70,218.49 933.12,224.61 935.54,229.77 937.96,233.82 940.38,236.66 942.80,238.24 945.22,238.52 947.64,237.53 950.06,235.31 952.48,231.95 954.90,227.55 957.32,222.27 959.74,216.26 962.16,209.72 964.58,202.85 967.00,195.83 969.42,188.89 971.84,182.21 974.26,175.99 976.68,170.38 979.10,165.56 981.52,161.64 983.94,158.71 986.36,156.85 988.78,156.09 991.20,156.43 993.62,157.84 996.04,160.27 998.46,163.64 1000.88,167.84 1003.30,172.75 1005.72,178.23 1008.14,184.14 1010.56,190.32 1012.98,196.60 1015.40,202.82 1017.82,208.83 1020.24,214.46 1022.66,219.58 1025.08,224.05 1027.50,227.77 1029.92,230.63 1032.34,232.54 1034.76,233.46 1037.18,233.35 1039.60,232.19 1042.02,230.00 1044.44,226.83 1046.86,222.74 1049.28,217.83 1051.70,212.20 1054.12,206.00 1056.54,199.37 1058.96,192.48 1061.38,185.50 1063.80,178.63 1066.22,172.06 1068.64,165.97 1071.06,160.54 1073.48,155.94 1075.90,152.33 1078.32,149.83 1080.74,148.54 1083.16,148.52 1085.58,149.80 1088.00,152.36 1090.42,156.16 1092.84,161.10 1095.26,167.05 1097.68,173.86 1100.10,181.33 1102.52,189.23 1104.94,197.35 1107.36,205.44 1109.78,213.26 1112.20,220.57 1114.62,227.17 1117.04,232.84 1119.46,237.43 1121.88,240.79 1124.30,242.85 1126.72,243.56 1129.14,242.91 1131.56,240.95 1133.98,237.76 1136.40,233.45 1138.82,228.18 1141.24,222.11 1143.66,215.44 1146.08,208.38 1148.50,201.13 1150.92,193.90 1153.34,186.89 1155.76,180.26 1158.18,174.19 1160.60,168.80 1163.02,164.19 1165.44,160.45 1167.86,157.62 1170.28,155.73 1172.70,154.78 1175.12,154.73 1177.54,155.56 1179.96,157.19 1182.38,159.57 1184.80,162.62 1187.22,166.25 1189.64,170.37 1192.06,174.88 1194.48,179.69 1196.90,184.71 1199.32,189.84 1201.74,195.00 1204.16,200.08 1206.58,205.00 1209.00,209.65 1211.42,213.93 1213.84,217.77 1216.26,221.08 1218.68,223.78 1221.10,225.79 1223.52,227.07 1225.94,227.56 1228.36,227.25 1230.78,226.14 1233.20,224.25 1235.62,221.62 1238.04,218.33 1240.46,214.46 1242.88,210.13 1245.30,205.47 1247.72,200.62 1250.14,195.74 1252.56,190.98 1254.98,186.50 1257.40,182.45 1259.82,178.95 1262.24,176.11 1264.66,174.01 1267.08,172.69 1269.50,172.17 1271.92,172.44 1274.34,173.44 1276.76,175.10 1279.18,177.31 1281.60,179.94 1284.02,182.85 1286.44,185.90 1288.86,188.94 1291.28,191.81 1293.70,194.40 1296.12,196.61 1298.54,198.36 1300.96,199.59 1303.38,200.28 1305.80,200.42 1308.22,200.06 1310.64,199.25 1313.06,198.07 1315.48,196.63 1317.90,195.05 1320.32,193.43 1322.74,191.90 1325.16,190.55 1327.58,189.48 1330.00,188.77" class="wave"/>
<text x="120" y="362" class="panel-label">腹部 · 原记录124.22–134.22s · 中心1.25Hz · 一致性0.89 · 自然变异度0.30</text>
<line x1="120.00" y1="378" x2="120.00" y2="568" class="grid"/>
<line x1="241.00" y1="378" x2="241.00" y2="568" class="grid"/>
<line x1="362.00" y1="378" x2="362.00" y2="568" class="grid"/>
<line x1="483.00" y1="378" x2="483.00" y2="568" class="grid"/>
<line x1="604.00" y1="378" x2="604.00" y2="568" class="grid"/>
<line x1="725.00" y1="378" x2="725.00" y2="568" class="grid"/>
<line x1="846.00" y1="378" x2="846.00" y2="568" class="grid"/>
<line x1="967.00" y1="378" x2="967.00" y2="568" class="grid"/>
<line x1="1088.00" y1="378" x2="1088.00" y2="568" class="grid"/>
<line x1="1209.00" y1="378" x2="1209.00" y2="568" class="grid"/>
<line x1="1330.00" y1="378" x2="1330.00" y2="568" class="grid"/>
<line x1="120" y1="552.17" x2="1330" y2="552.17" class="grid"/>
<text x="108" y="557.17" class="tick" text-anchor="end">-1</text>
<line x1="120" y1="473.00" x2="1330" y2="473.00" class="grid"/>
<text x="108" y="478.00" class="tick" text-anchor="end">+0</text>
<line x1="120" y1="393.83" x2="1330" y2="393.83" class="grid"/>
<text x="108" y="398.83" class="tick" text-anchor="end">+1</text>
<rect x="120" y="378" width="1210" height="190" class="border"/>
<polyline points="120.00,447.71 122.42,444.93 124.84,442.77 127.26,441.32 129.68,440.61 132.10,440.68 134.52,441.53 136.94,443.13 139.36,445.46 141.78,448.45 144.20,452.02 146.62,456.09 149.04,460.54 151.46,465.26 153.88,470.13 156.30,475.02 158.72,479.82 161.14,484.40 163.56,488.65 165.98,492.48 168.40,495.79 170.82,498.51 173.24,500.60 175.66,502.00 178.08,502.70 180.50,502.71 182.92,502.03 185.34,500.69 187.76,498.74 190.18,496.24 192.60,493.26 195.02,489.88 197.44,486.19 199.86,482.29 202.28,478.26 204.70,474.21 207.12,470.23 209.54,466.43 211.96,462.88 214.38,459.67 216.80,456.87 219.22,454.54 221.64,452.73 224.06,451.47 226.48,450.81 228.90,450.73 231.32,451.25 233.74,452.35 236.16,453.99 238.58,456.14 241.00,458.75 243.42,461.74 245.84,465.04 248.26,468.57 250.68,472.23 253.10,475.94 255.52,479.60 257.94,483.11 260.36,486.38 262.78,489.33 265.20,491.88 267.62,493.96 270.04,495.50 272.46,496.47 274.88,496.83 277.30,496.55 279.72,495.66 282.14,494.14 284.56,492.05 286.98,489.42 289.40,486.32 291.82,482.80 294.24,478.95 296.66,474.86 299.08,470.63 301.50,466.35 303.92,462.12 306.34,458.06 308.76,454.25 311.18,450.80 313.60,447.79 316.02,445.31 318.44,443.41 320.86,442.17 323.28,441.62 325.70,441.79 328.12,442.69 330.54,444.31 332.96,446.64 335.38,449.63 337.80,453.23 340.22,457.39 342.64,462.00 345.06,466.99 347.48,472.26 349.90,477.67 352.32,483.13 354.74,488.50 357.16,493.66 359.58,498.49 362.00,502.87 364.42,506.69 366.84,509.86 369.26,512.28 371.68,513.88 374.10,514.62 376.52,514.45 378.94,513.36 381.36,511.37 383.78,508.50 386.20,504.80 388.62,500.34 391.04,495.22 393.46,489.55 395.88,483.47 398.30,477.09 400.72,470.59 403.14,464.11 405.56,457.80 407.98,451.82 410.40,446.32 412.82,441.43 415.24,437.26 417.66,433.94 420.08,431.53 422.50,430.09 424.92,429.66 427.34,430.25 429.76,431.85 432.18,434.41 434.60,437.87 437.02,442.13 439.44,447.10 441.86,452.64 444.28,458.62 446.70,464.88 449.12,471.26 451.54,477.60 453.96,483.75 456.38,489.55 458.80,494.88 461.22,499.59 463.64,503.58 466.06,506.77 468.48,509.07 470.90,510.43 473.32,510.83 475.74,510.27 478.16,508.77 480.58,506.37 483.00,503.14 485.42,499.16 487.84,494.55 490.26,489.40 492.68,483.87 495.10,478.09 497.52,472.21 499.94,466.37 502.36,460.73 504.78,455.44 507.20,450.62 509.62,446.41 512.04,442.92 514.46,440.26 516.88,438.48 519.30,437.66 521.72,437.84 524.14,439.01 526.56,441.16 528.98,444.27 531.40,448.26 533.82,453.05 536.24,458.53 538.66,464.56 541.08,471.01 543.50,477.70 545.92,484.46 548.34,491.12 550.76,497.48 553.18,503.38 555.60,508.64 558.02,513.10 560.44,516.63 562.86,519.10 565.28,520.42 567.70,520.52 570.12,519.38 572.54,517.00 574.96,513.40 577.38,508.66 579.80,502.89 582.22,496.20 584.64,488.76 587.06,480.76 589.48,472.38 591.90,463.85 594.32,455.38 596.74,447.19 599.16,439.49 601.58,432.49 604.00,426.37 606.42,421.29 608.84,417.37 611.26,414.73 613.68,413.42 616.10,413.49 618.52,414.92 620.94,417.69 623.36,421.70 625.78,426.87 628.20,433.05 630.62,440.10 633.04,447.83 635.46,456.07 637.88,464.61 640.30,473.28 642.72,481.87 645.14,490.20 647.56,498.11 649.98,505.44 652.40,512.06 654.82,517.87 657.24,522.76 659.66,526.68 662.08,529.57 664.50,531.43 666.92,532.24 669.34,532.03 671.76,530.84 674.18,528.70 676.60,525.69 679.02,521.87 681.44,517.32 683.86,512.11 686.28,506.34 688.70,500.09 691.12,493.44 693.54,486.48 695.96,479.31 698.38,472.01 700.80,464.67 703.22,457.38 705.64,450.25 708.06,443.36 710.48,436.82 712.90,430.72 715.32,425.16 717.74,420.24 720.16,416.07 722.58,412.73 725.00,410.32 727.42,408.93 729.84,408.60 732.26,409.42 734.68,411.41 737.10,414.58 739.52,418.94 741.94,424.45 744.36,431.06 746.78,438.68 749.20,447.20 751.62,456.48 754.04,466.36 756.46,476.65 758.88,487.14 761.30,497.62 763.72,507.86 766.14,517.61 768.56,526.64 770.98,534.73 773.40,541.65 775.82,547.23 778.24,551.30 780.66,553.73 783.08,554.41 785.50,553.31 787.92,550.42 790.34,545.77 792.76,539.45 795.18,531.57 797.60,522.33 800.02,511.91 802.44,500.56 804.86,488.54 807.28,476.14 809.70,463.64 812.12,451.36 814.54,439.58 816.96,428.60 819.38,418.68 821.80,410.06 824.22,402.94 826.64,397.49 829.06,393.83 831.48,392.05 833.90,392.16 836.32,394.14 838.74,397.94 841.16,403.43 843.58,410.47 846.00,418.86 848.42,428.38 850.84,438.79 853.26,449.83 855.68,461.21 858.10,472.65 860.52,483.89 862.94,494.66 865.36,504.70 867.78,513.79 870.20,521.73 872.62,528.35 875.04,533.54 877.46,537.19 879.88,539.26 882.30,539.72 884.72,538.62 887.14,536.00 889.56,531.98 891.98,526.68 894.40,520.26 896.82,512.90 899.24,504.80 901.66,496.17 904.08,487.24 906.50,478.24 908.92,469.37 911.34,460.86 913.76,452.92 916.18,445.73 918.60,439.45 921.02,434.22 923.44,430.16 925.86,427.35 928.28,425.82 930.70,425.60 933.12,426.67 935.54,428.97 937.96,432.40 940.38,436.85 942.80,442.17 945.22,448.19 947.64,454.72 950.06,461.55 952.48,468.48 954.90,475.30 957.32,481.81 959.74,487.81 962.16,493.13 964.58,497.61 967.00,501.13 969.42,503.60 971.84,504.96 974.26,505.20 976.68,504.35 979.10,502.45 981.52,499.61 983.94,495.96 986.36,491.65 988.78,486.86 991.20,481.79 993.62,476.63 996.04,471.59 998.46,466.87 1000.88,462.63 1003.30,459.04 1005.72,456.22 1008.14,454.28 1010.56,453.26 1012.98,453.20 1015.40,454.06 1017.82,455.79 1020.24,458.30 1022.66,461.45 1025.08,465.10 1027.50,469.06 1029.92,473.14 1032.34,477.16 1034.76,480.93 1037.18,484.27 1039.60,487.02 1042.02,489.05 1044.44,490.26 1046.86,490.60 1049.28,490.02 1051.70,488.55 1054.12,486.24 1056.54,483.19 1058.96,479.51 1061.38,475.38 1063.80,470.95 1066.22,466.42 1068.64,461.98 1071.06,457.84 1073.48,454.17 1075.90,451.15 1078.32,448.91 1080.74,447.57 1083.16,447.21 1085.58,447.87 1088.00,449.55 1090.42,452.21 1092.84,455.78 1095.26,460.14 1097.68,465.14 1100.10,470.63 1102.52,476.40 1104.94,482.27 1107.36,488.04 1109.78,493.49 1112.20,498.46 1114.62,502.76 1117.04,506.25 1119.46,508.81 1121.88,510.36 1124.30,510.83 1126.72,510.22 1129.14,508.53 1131.56,505.83 1133.98,502.18 1136.40,497.70 1138.82,492.53 1141.24,486.81 1143.66,480.71 1146.08,474.40 1148.50,468.06 1150.92,461.86 1153.34,455.94 1155.76,450.48 1158.18,445.59 1160.60,441.38 1163.02,437.97 1165.44,435.40 1167.86,433.73 1170.28,432.98 1172.70,433.14 1175.12,434.22 1177.54,436.15 1179.96,438.89 1182.38,442.36 1184.80,446.47 1187.22,451.13 1189.64,456.23 1192.06,461.65 1194.48,467.28 1196.90,473.00 1199.32,478.68 1201.74,484.21 1204.16,489.47 1206.58,494.36 1209.00,498.77 1211.42,502.61 1213.84,505.81 1216.26,508.28 1218.68,510.00 1221.10,510.90 1223.52,510.99 1225.94,510.25 1228.36,508.69 1230.78,506.37 1233.20,503.32 1235.62,499.63 1238.04,495.37 1240.46,490.66 1242.88,485.61 1245.30,480.34 1247.72,475.00 1250.14,469.72 1252.56,464.63 1254.98,459.87 1257.40,455.57 1259.82,451.84 1262.24,448.77 1264.66,446.44 1267.08,444.92 1269.50,444.22 1271.92,444.37 1274.34,445.32 1276.76,447.05 1279.18,449.48 1281.60,452.52 1284.02,456.05 1286.44,459.95 1288.86,464.08 1291.28,468.29 1293.70,472.43 1296.12,476.35 1298.54,479.93 1300.96,483.04 1303.38,485.58 1305.80,487.46 1308.22,488.64 1310.64,489.08 1313.06,488.79 1315.48,487.78 1317.90,486.13 1320.32,483.90 1322.74,481.20 1325.16,478.15 1327.58,474.88 1330.00,471.52" class="wave"/>
<text x="120" y="640" class="panel-label">椅背 · 原记录72.48–82.48s · 中心1.16Hz · 一致性0.96 · 自然变异度0.26</text>
<line x1="120.00" y1="656" x2="120.00" y2="846" class="grid"/>
<text x="120.00" y="872" class="tick" text-anchor="middle">0</text>
<line x1="241.00" y1="656" x2="241.00" y2="846" class="grid"/>
<text x="241.00" y="872" class="tick" text-anchor="middle">1</text>
<line x1="362.00" y1="656" x2="362.00" y2="846" class="grid"/>
<text x="362.00" y="872" class="tick" text-anchor="middle">2</text>
<line x1="483.00" y1="656" x2="483.00" y2="846" class="grid"/>
<text x="483.00" y="872" class="tick" text-anchor="middle">3</text>
<line x1="604.00" y1="656" x2="604.00" y2="846" class="grid"/>
<text x="604.00" y="872" class="tick" text-anchor="middle">4</text>
<line x1="725.00" y1="656" x2="725.00" y2="846" class="grid"/>
<text x="725.00" y="872" class="tick" text-anchor="middle">5</text>
<line x1="846.00" y1="656" x2="846.00" y2="846" class="grid"/>
<text x="846.00" y="872" class="tick" text-anchor="middle">6</text>
<line x1="967.00" y1="656" x2="967.00" y2="846" class="grid"/>
<text x="967.00" y="872" class="tick" text-anchor="middle">7</text>
<line x1="1088.00" y1="656" x2="1088.00" y2="846" class="grid"/>
<text x="1088.00" y="872" class="tick" text-anchor="middle">8</text>
<line x1="1209.00" y1="656" x2="1209.00" y2="846" class="grid"/>
<text x="1209.00" y="872" class="tick" text-anchor="middle">9</text>
<line x1="1330.00" y1="656" x2="1330.00" y2="846" class="grid"/>
<text x="1330.00" y="872" class="tick" text-anchor="middle">10</text>
<line x1="120" y1="830.17" x2="1330" y2="830.17" class="grid"/>
<text x="108" y="835.17" class="tick" text-anchor="end">-1</text>
<line x1="120" y1="751.00" x2="1330" y2="751.00" class="grid"/>
<text x="108" y="756.00" class="tick" text-anchor="end">+0</text>
<line x1="120" y1="671.83" x2="1330" y2="671.83" class="grid"/>
<text x="108" y="676.83" class="tick" text-anchor="end">+1</text>
<rect x="120" y="656" width="1210" height="190" class="border"/>
<polyline points="120.00,775.57 122.42,779.41 124.84,782.59 127.26,785.04 129.68,786.71 132.10,787.56 134.52,787.58 136.94,786.76 139.36,785.12 141.78,782.72 144.20,779.59 146.62,775.82 149.04,771.50 151.46,766.70 153.88,761.55 156.30,756.15 158.72,750.62 161.14,745.09 163.56,739.68 165.98,734.52 168.40,729.71 170.82,725.39 173.24,721.64 175.66,718.57 178.08,716.27 180.50,714.78 182.92,714.16 185.34,714.45 187.76,715.63 190.18,717.70 192.60,720.61 195.02,724.30 197.44,728.70 199.86,733.70 202.28,739.18 204.70,745.01 207.12,751.05 209.54,757.13 211.96,763.12 214.38,768.85 216.80,774.17 219.22,778.94 221.64,783.03 224.06,786.33 226.48,788.76 228.90,790.24 231.32,790.72 233.74,790.20 236.16,788.69 238.58,786.21 241.00,782.85 243.42,778.68 245.84,773.82 248.26,768.40 250.68,762.56 253.10,756.47 255.52,750.28 257.94,744.18 260.36,738.32 262.78,732.88 265.20,728.00 267.62,723.83 270.04,720.49 272.46,718.07 274.88,716.66 277.30,716.30 279.72,717.02 282.14,718.81 284.56,721.64 286.98,725.45 289.40,730.14 291.82,735.60 294.24,741.70 296.66,748.28 299.08,755.16 301.50,762.16 303.92,769.09 306.34,775.76 308.76,781.98 311.18,787.57 313.60,792.36 316.02,796.20 318.44,798.96 320.86,800.54 323.28,800.85 325.70,799.87 328.12,797.58 330.54,794.02 332.96,789.23 335.38,783.33 337.80,776.44 340.22,768.72 342.64,760.36 345.06,751.55 347.48,742.53 349.90,733.53 352.32,724.78 354.74,716.53 357.16,709.00 359.58,702.39 362.00,696.91 364.42,692.72 366.84,689.96 369.26,688.71 371.68,689.04 374.10,690.97 376.52,694.47 378.94,699.48 381.36,705.89 383.78,713.57 386.20,722.34 388.62,731.99 391.04,742.29 393.46,753.01 395.88,763.88 398.30,774.64 400.72,785.03 403.14,794.80 405.56,803.72 407.98,811.57 410.40,818.17 412.82,823.35 415.24,827.00 417.66,829.02 420.08,829.36 422.50,828.03 424.92,825.04 427.34,820.46 429.76,814.39 432.18,806.96 434.60,798.35 437.02,788.72 439.44,778.30 441.86,767.31 444.28,755.97 446.70,744.54 449.12,733.24 451.54,722.32 453.96,712.00 456.38,702.49 458.80,694.00 461.22,686.68 463.64,680.70 466.06,676.18 468.48,673.20 470.90,671.83 473.32,672.11 475.74,674.03 478.16,677.56 480.58,682.63 483.00,689.14 485.42,696.97 487.84,705.97 490.26,715.94 492.68,726.70 495.10,738.02 497.52,749.66 499.94,761.39 502.36,772.96 504.78,784.12 507.20,794.63 509.62,804.28 512.04,812.85 514.46,820.15 516.88,826.04 519.30,830.37 521.72,833.05 524.14,834.02 526.56,833.26 528.98,830.79 531.40,826.68 533.82,821.01 536.24,813.93 538.66,805.60 541.08,796.23 543.50,786.03 545.92,775.25 548.34,764.14 550.76,752.96 553.18,741.97 555.60,731.42 558.02,721.55 560.44,712.58 562.86,704.71 565.28,698.10 567.70,692.88 570.12,689.14 572.54,686.95 574.96,686.31 577.38,687.21 579.80,689.58 582.22,693.35 584.64,698.37 587.06,704.51 589.48,711.59 591.90,719.41 594.32,727.77 596.74,736.46 599.16,745.26 601.58,753.96 604.00,762.35 606.42,770.26 608.84,777.51 611.26,783.94 613.68,789.43 616.10,793.89 618.52,797.23 620.94,799.40 623.36,800.40 625.78,800.22 628.20,798.92 630.62,796.54 633.04,793.19 635.46,788.96 637.88,783.98 640.30,778.39 642.72,772.34 645.14,765.99 647.56,759.51 649.98,753.05 652.40,746.78 654.82,740.86 657.24,735.42 659.66,730.60 662.08,726.50 664.50,723.23 666.92,720.84 669.34,719.39 671.76,718.89 674.18,719.34 676.60,720.72 679.02,722.97 681.44,726.01 683.86,729.74 686.28,734.06 688.70,738.82 691.12,743.88 693.54,749.10 695.96,754.32 698.38,759.38 700.80,764.13 703.22,768.44 705.64,772.19 708.06,775.26 710.48,777.57 712.90,779.06 715.32,779.68 717.74,779.44 720.16,778.33 722.58,776.41 725.00,773.74 727.42,770.42 729.84,766.55 732.26,762.28 734.68,757.73 737.10,753.07 739.52,748.44 741.94,744.01 744.36,739.92 746.78,736.31 749.20,733.30 751.62,731.01 754.04,729.49 756.46,728.82 758.88,729.02 761.30,730.07 763.72,731.96 766.14,734.63 768.56,737.98 770.98,741.92 773.40,746.30 775.82,751.00 778.24,755.85 780.66,760.68 783.08,765.35 785.50,769.68 787.92,773.54 790.34,776.79 792.76,779.32 795.18,781.02 797.60,781.85 800.02,781.77 802.44,780.76 804.86,778.85 807.28,776.09 809.70,772.57 812.12,768.40 814.54,763.70 816.96,758.62 819.38,753.33 821.80,747.97 824.22,742.74 826.64,737.78 829.06,733.26 831.48,729.32 833.90,726.08 836.32,723.65 838.74,722.10 841.16,721.47 843.58,721.80 846.00,723.07 848.42,725.23 850.84,728.23 853.26,731.96 855.68,736.32 858.10,741.16 860.52,746.34 862.94,751.69 865.36,757.06 867.78,762.29 870.20,767.21 872.62,771.69 875.04,775.58 877.46,778.79 879.88,781.21 882.30,782.79 884.72,783.48 887.14,783.28 889.56,782.18 891.98,780.24 894.40,777.51 896.82,774.07 899.24,770.04 901.66,765.51 904.08,760.64 906.50,755.55 908.92,750.40 911.34,745.31 913.76,740.44 916.18,735.90 918.60,731.83 921.02,728.32 923.44,725.46 925.86,723.34 928.28,721.99 930.70,721.46 933.12,721.75 935.54,722.86 937.96,724.76 940.38,727.40 942.80,730.72 945.22,734.65 947.64,739.10 950.06,743.96 952.48,749.14 954.90,754.51 957.32,759.95 959.74,765.36 962.16,770.60 964.58,775.56 967.00,780.12 969.42,784.19 971.84,787.65 974.26,790.41 976.68,792.41 979.10,793.58 981.52,793.87 983.94,793.24 986.36,791.70 988.78,789.23 991.20,785.87 993.62,781.66 996.04,776.67 998.46,770.99 1000.88,764.71 1003.30,757.96 1005.72,750.89 1008.14,743.63 1010.56,736.36 1012.98,729.25 1015.40,722.47 1017.82,716.19 1020.24,710.60 1022.66,705.84 1025.08,702.07 1027.50,699.41 1029.92,697.97 1032.34,697.80 1034.76,698.97 1037.18,701.47 1039.60,705.28 1042.02,710.33 1044.44,716.52 1046.86,723.74 1049.28,731.80 1051.70,740.53 1054.12,749.70 1056.54,759.10 1058.96,768.47 1061.38,777.57 1063.80,786.16 1066.22,794.02 1068.64,800.92 1071.06,806.68 1073.48,811.14 1075.90,814.18 1078.32,815.71 1080.74,815.68 1083.16,814.10 1085.58,811.00 1088.00,806.47 1090.42,800.64 1092.84,793.66 1095.26,785.72 1097.68,777.03 1100.10,767.84 1102.52,758.38 1104.94,748.90 1107.36,739.65 1109.78,730.87 1112.20,722.77 1114.62,715.57 1117.04,709.41 1119.46,704.44 1121.88,700.77 1124.30,698.45 1126.72,697.51 1129.14,697.94 1131.56,699.69 1133.98,702.69 1136.40,706.82 1138.82,711.95 1141.24,717.91 1143.66,724.52 1146.08,731.61 1148.50,738.98 1150.92,746.43 1153.34,753.78 1155.76,760.86 1158.18,767.49 1160.60,773.53 1163.02,778.86 1165.44,783.38 1167.86,787.01 1170.28,789.70 1172.70,791.43 1175.12,792.21 1177.54,792.05 1179.96,791.02 1182.38,789.18 1184.80,786.63 1187.22,783.45 1189.64,779.77 1192.06,775.71 1194.48,771.38 1196.90,766.93 1199.32,762.46 1201.74,758.09 1204.16,753.94 1206.58,750.09 1209.00,746.62 1211.42,743.61 1213.84,741.09 1216.26,739.09 1218.68,737.63 1221.10,736.71 1223.52,736.28 1225.94,736.33 1228.36,736.79 1230.78,737.61 1233.20,738.72 1235.62,740.05 1238.04,741.51 1240.46,743.02 1242.88,744.52 1245.30,745.93 1247.72,747.19 1250.14,748.24 1252.56,749.05 1254.98,749.57 1257.40,749.81 1259.82,749.75 1262.24,749.40 1264.66,748.79 1267.08,747.96 1269.50,746.96 1271.92,745.83 1274.34,744.66 1276.76,743.51 1279.18,742.46 1281.60,741.58 1284.02,740.94 1286.44,740.62 1288.86,740.67 1291.28,741.14 1293.70,742.07 1296.12,743.49 1298.54,745.39 1300.96,747.77 1303.38,750.62 1305.80,753.88 1308.22,757.49 1310.64,761.39 1313.06,765.48 1315.48,769.67 1317.90,773.85 1320.32,777.89 1322.74,781.69 1325.16,785.12 1327.58,788.07 1330.00,790.42" class="wave"/>
</svg>